Coordinates
version=1
nRows=8
nColumns=33
inDegrees=yes

Units are S.I. units (second, meters, Newtons, ...)
Angles are in degrees.

endheader
time	ground_thorax_rot_x	ground_thorax_rot_y	ground_thorax_rot_z	ground_thorax_tx	ground_thorax_ty	ground_thorax_tz	clav_prot_r	clav_elev_r	scapula_abduction_r	scapula_elevation_r	scapula_upward_rot_r	scapula_winging_r	shoulder_elv_r	plane_of_elev_r	axial_rot_r	elbow_flexion_r	pro_sup_r	wrist_flex_r	wrist_dev_r	clav_prot_l	clav_elev_l	scapula_abduction_l	scapula_elevation_l	scapula_upward_rot_l	scapula_winging_l	shoulder_elv_l	plane_of_elev_l	axial_rot_l	elbow_flexion_l	pro_sup_l	wrist_flex_l	wrist_dev_l
      1.71000000	      0.56078982	      3.67373699	     10.86315591	     -0.10331448	      1.02724985	      0.02067121	      8.33097088	     -9.65821077	     14.92233400	     -2.85671155	      0.64509167	     -2.90228414	    -61.16718570	    -73.71030388	     80.66916739	    -64.04868867	   -138.87596538	     57.67540127	    -24.99999983	      7.93858190	     -0.01839894	     -8.46448259	    -21.91851086	    -35.10349180	     -3.07374630	     56.33147919	    -35.11472832	     -1.57722866	     59.38397635	     28.64940146	     -6.68963133	    -24.99999983
      1.72000000	      0.56250681	      3.71254631	     10.82899478	     -0.10339610	      1.02702210	      0.02083342	      8.27465592	     -9.63336890	     14.81727448	     -2.82775650	      0.62860733	     -2.86973666	    -61.07765956	    -73.65930803	     80.70968869	    -64.49231396	   -139.04702254	     57.73165206	    -24.99999983	      7.92304920	     -0.02854000	     -8.43360851	    -21.89600318	    -35.07630837	     -3.07583606	     56.45252795	    -34.99170100	     -1.36291499	     59.99061420	     28.56202159	     -6.87120730	    -24.99999983
      1.73000000	      0.60448715	      3.83671525	     10.95628335	     -0.10382654	      1.02747214	      0.02092579	      7.99806427	    -10.21445853	     13.84006651	     -2.89112896	     -0.49574061	     -2.21755987	    -60.01910731	    -74.32792693	     81.42981067	    -65.31267801	   -141.18129946	     57.44845086	    -24.99999983	      8.08061965	     -0.60625207	     -8.99172053	    -21.81230613	    -36.12115593	     -2.96315504	     57.17316585	    -34.75771003	     -0.93091472	     60.59099082	     28.12394882	     -8.33204281	    -24.99999983
      1.74000000	      0.59571443	      3.94073420	     10.98948488	     -0.10386355	      1.02729251	      0.02108517	      7.91736923	    -10.11729932	     13.73586566	     -2.83802388	     -0.41379069	     -2.22043741	    -59.93688259	    -74.21231658	     81.42059590	    -65.59391795	   -141.22783974	     57.50071182	    -24.99999983	      8.04145972	     -0.52523770	     -8.87830043	    -21.81568792	    -35.95707005	     -2.99313234	     57.26792169	    -34.56923063	     -0.66998110	     61.18467323	     28.03879552	     -8.44334828	    -24.99999983
      1.75000000	      0.56110464	      3.97282046	     10.99661303	     -0.10398050	      1.02713470	      0.02121782	      7.84496453	    -10.05845300	     13.65668019	     -2.82959792	     -0.30830678	     -2.21388274	    -59.87819951	    -74.13780126	     81.47687230	    -66.03793833	   -141.31308147	     57.57241074	    -24.99999983	      8.00923053	     -0.47466412	     -8.78753369	    -21.80464528	    -35.82421979	     -3.01189775	     57.36170890	    -34.38874054	     -0.38803389	     61.88428058	     27.92591516	     -8.57442661	    -24.99999983
      1.76000000	      0.54544532	      4.00995863	     11.03236537	     -0.10413819	      1.02710209	      0.02138947	      7.78423966	    -10.01275720	     13.58566064	     -2.82019727	     -0.23305679	     -2.20988270	    -59.79749137	    -74.09840003	     81.51832679	    -66.48157776	   -141.44547456	     57.62546771	    -24.99999983	      7.97042315	     -0.46604292	     -8.69189659	    -21.75396154	    -35.69769493	     -3.02691892	     57.46701601	    -34.20330578	     -0.06636714	     62.58156921	     27.78976182	     -8.70262662	    -24.99999983
      1.77000000	      0.49899901	      3.95407409	     11.09848157	     -0.10443326	      1.02705169	      0.02147675	      7.75068144	    -10.06751585	     13.51427338	     -2.85514380	     -0.27027829	     -2.16273532	    -59.68809652	    -74.29076455	     81.75907722	    -67.07325516	   -141.86741514	     57.60611103	    -24.99999983	      7.94341119	     -0.54942245	     -8.65139798	    -21.66593383	    -35.68484481	     -3.03181040	     57.63243331	    -34.12256283	      0.41931314	     63.35568044	     27.48506000	     -8.85912643	    -24.99999983
      1.78000000	      0.55880245	      4.06622486	     11.17192856	     -0.10457661	      1.02712434	      0.02161778	      7.69847220	     -9.99543267	     13.44889378	     -2.81518605	     -0.20881332	     -2.16869985	    -59.49094022	    -74.18294064	     81.65481862	    -67.45074948	   -142.04045566	     57.61568011	    -24.99999983	      7.89763930	     -0.58821246	     -8.53803082	    -21.54330256	    -35.50772945	     -3.04082095	     57.74528979	    -33.82954186	      0.68251307	     63.96126847	     27.34940884	     -8.92763811	    -24.99999983
